<svg xmlns="http://www.w3.org/2000/svg" viewBox="0 0 569 549">
<rect width="100%" height="100%" fill="white"/>
<path fill="currentColor" d="M263 61.851c0 .412.563 1.344 1.25 2.07 1.298 1.373 1.092 1.361-9.75-.532-2.267-.396-3.5-.22-3.5.5 0 .611.477 1.111 1.059 1.111s.823.382.534.849c-.288.467-4.252 1.116-8.809 1.441-16.82 1.203-27.495 3.864-20.034 4.994 2.731.414 2.729.417-.29.566-3.787.187-13.756 2.749-17.87 4.593-1.699.762-5.453 1.959-8.34 2.66-2.887.701-5.25 1.626-5.25 2.055 0 .428-.663.525-1.474.213-.811-.311-2.193.153-3.07 1.03-.878.878-2.802 1.895-4.276 2.261-5.043 1.252-9.543 3.496-8.411 4.195.64.396-1.204 1.94-4.353 3.643-3.363 1.819-5.374 3.541-5.229 4.478.13.837-1.212 3.087-2.981 5-6.241 6.75-5.398 9.105 3.509 9.809 3.182.252 6.298.867 6.925 1.367.699.557 4.128.292 8.863-.686 4.247-.878 8.394-1.338 9.214-1.023.821.315 4.622-.556 8.447-1.936 3.824-1.38 6.676-2.059 6.336-1.509-.996 1.611.884 1.186 8.841-2 7.09-2.839 12.743-4.111 7.909-1.78-3.916 1.889-2.43 2.756 2 1.168 6.117-2.192 26.847-7.382 29.5-7.385 1.335-.002 2.25.607 2.25 1.497 0 .825.45 1.5 1 1.5s1-.37 1-.823c0-.794 7.984-5.177 9.431-5.177.392 0-.056.767-.993 1.705-2.73 2.73 3.06 2.614 12.327-.247 1.823-.563 2.143-.383 1.643.921-1.968 5.13 14.491-6.842 19.24-13.994 1.809-2.723 7.684-2.429 36.852 1.841 28.23 4.132 28.5 4.16 28.5 2.914 0-1.924-3.282-2.861-19-5.43-23.008-3.759-32.364-4.71-46.363-4.71-11.842 0-14.554-.641-11.387-2.691.791-.512-.22-.993-2.75-1.309-3.472-.434-4.042-.863-4.316-3.25-.394-3.417-1.445-3.499-3.184-.25-1.51 2.822-1.813 2.902-5.574 1.472-3.343-1.271-3.927-.776-2.414 2.05 1.833 3.426.145 4.172-12.72 5.623-15.069 1.699-32.873 5.424-46.542 9.737-5.912 1.865-10.75 3.045-10.75 2.621 0-.87 13.32-6.003 15.576-6.003 1.025 0 1.29-.686.886-2.294-1.118-4.457 6.2-8.076 23.544-11.642 16.173-3.324 17.99-3.91 17.345-5.591-.681-1.775.356-1.827 6.345-.319 3.303.831 5.065.852 6.313.072.952-.594 5.396-1.206 9.875-1.358l8.144-.278 5.765 5.705c5.671 5.612 8.207 6.972 8.207 4.401 0-4.7-21.882-17.295-24.738-14.238-.419.449-.199 1.017.488 1.262.688.246 1.25.804 1.25 1.24 0 1.117-8.848.051-12.75-1.536-1.788-.727-3.25-.985-3.25-.573m-1.083 20.527c-.229.208-2.892.617-5.917.91-17.614 1.706-32 6.125-32 9.829 0 2.641 12.869 6.318 15.791 4.512 2.14-1.322 17.543-2.706 18.205-1.635.499.807 2.496.525 6.985-.988 6.107-2.057 9.79-2.063 8.523-.013-.861 1.394.52 1.263 5.607-.532 2.827-.998 4.485-1.174 4.709-.5.648 1.942 2.258 1.047 7.723-4.289C298.357 83.02 298.418 82 292 82c-2.75 0-5 .45-5 1s.45 1 1 1 1 .5 1 1.111c0 .722-1.188.889-3.384.477-3.246-.609-3.412-.491-4.046 2.891l-.662 3.526-2.403-2.752c-2.37-2.715-2.445-2.73-5.454-1.05-3.252 1.816-3.606 1.387-2.108-2.553.728-1.915.596-2.613-.582-3.065-1.693-.649-7.792-.799-8.444-.207M359 113.206c-5.35 3.101-5.855 3.193-18.5 3.372-9.36.132-15.66.804-22.5 2.399-5.225 1.219-11.727 2.66-14.45 3.201-6.553 1.304-11.108 3.725-17.102 9.088-2.722 2.435-6.898 5.65-9.28 7.145l-4.333 2.718-3.167-2.583c-9.155-7.464-13.549-10.42-17.168-11.547-2.2-.685-4.9-2.061-6-3.057-1.1-.996-4.25-2.107-7-2.469-4.919-.646-5.074-.583-9.596 3.882-3.34 3.299-5.152 4.393-6.633 4.006-2.821-.738-6.973 1.659-12.229 7.059-3.469 3.563-5.171 4.58-7.669 4.58-1.766 0-4.493.736-6.06 1.635-2.714 1.558-3.11 1.516-8.331-.871-12.969-5.929-15.304-6.409-21.296-4.372-6.819 2.318-12.093 1.545-17.835-2.615-4.145-3.003-4.318-3.036-9.287-1.769-2.785.711-6.491 2.376-8.236 3.701-1.744 1.325-4.884 2.882-6.978 3.46-3.96 1.093-13.35 6.748-13.35 8.039 0 .407-1.412 1.471-3.137 2.363-7.729 3.997-23.715 29.412-27.946 44.429-.697 2.475-1.634 4.991-2.083 5.592C78.033 201.663 78.681 203 80 203c1.312 0 7.921-10.641 11.472-18.471C99.363 167.131 107.304 158 114.542 158c2.88 0 13.997 5.721 19.27 9.917 10.68 8.499 14.188 10.401 14.188 7.692 0-3.853-23.151-22.596-27.946-22.624-3.706-.023-5.531-1.344-3.819-2.765 2.738-2.272 7.502-3.402 15.304-3.629 5.102-.148 9.267-.847 11.403-1.912 1.851-.924 4.04-1.679 4.866-1.679 1.964 0 40.192 20.944 40.192 22.02 0 .455-1.053 2.099-2.341 3.653-2.976 3.594-7.659 11.643-7.659 13.165 0 2.498 2.117.916 6.137-4.588 2.31-3.162 7.914-9.426 12.453-13.918 4.54-4.493 10.213-10.568 12.608-13.5 7.857-9.619 9.137-10.832 11.43-10.832 2.18 0 11.229 6.868 16.296 12.369 2.392 2.596 4.076 3.364 4.076 1.86 0-.425-2.27-3.886-5.045-7.691-8.789-12.056-5.787-14.397 7.798-6.082 10.779 6.598 10.184 6.494 9.538 1.674-.756-5.635.982-5.919 7.254-1.184 6.524 4.926 6.55 5.07 1.436 7.945-6.534 3.672-29.599 22.023-45.515 36.212l-5.163 4.604-10.402.724c-20.681 1.441-21.319 1.505-41.33 4.18-37.378 4.996-69.911 16.827-83.741 30.452-8.241 8.117-9.41 11.894-5.794 18.711 8.843 16.67 39.825 23.163 127.464 26.713 7.7.312 19.175.983 25.5 1.492 6.325.508 17.125 1.19 24 1.515 25.89 1.225 44.239 4.215 45.994 7.494 1.186 2.216-.085 3.385-10.045 9.24C269.803 296.956 266 301.511 266 309.53c0 12.457 14.235 23.603 51.986 40.707 18.509 8.387 24.014 11.742 24.014 14.64 0 5.565-12.714 10.775-47.5 19.464-53.34 13.322-77.012 30.18-78.298 55.757-.881 17.532 5.366 27.284 22.916 35.77 13.865 6.704 18.736 7.634 39.882 7.617 36.634-.028 67.737-8.581 103.5-28.461 6.573-3.654 20.085-12.819 21.594-14.646 1.753-2.124 2.678-2.529-17.594 7.698-38.011 19.175-58.165 24.285-66.16 16.774-7.987-7.503 2.733-15.115 33.05-23.465 67.453-18.58 93.252-35.127 111.101-71.258 10.513-21.282 11.466-36.949 2.93-48.179-13.94-18.34-13.637-20.893 3.683-31.009 20.139-11.761 21.703-22.23 4.851-32.466-7.72-4.69-7.476-5.972 2.031-10.68 8.494-4.206 8.796-4.585 6.114-7.677-1.07-1.234-2.234-4.128-2.585-6.43-1.174-7.683-11.099-39.944-16.521-53.7-1.151-2.921-4.791-8.665-8.09-12.765-3.298-4.1-7.515-10.44-9.37-14.088-4.219-8.295-8.783-12.994-19.302-19.874-6.062-3.966-8.807-6.466-10.291-9.374-2.421-4.746-4.729-5.755-14.818-6.479-12.444-.893-26.359-3.395-30.404-5.468-5.155-2.643-7.316-2.443-13.719 1.268m-35.277 25.355c-8.907 7.375-10.626 7.743-14.211 3.044-5.594-7.334-25.854-3.134-36.128 7.488-4.315 4.461-16.295 13.907-17.639 13.907-1.99 0-17.926 9.869-20.745 12.847-1.925 2.033-6.65 5.917-10.5 8.63-7.938 5.595-24.116 18.75-26.75 21.751-2.626 2.992-2.301 9.312.629 12.242 5.018 5.018 23.014 12.7 40.621 17.34 13.299 3.504 17.903 5.3 20.152 7.857 7.599 8.643-4.287 17.754-26.073 19.986-9.353.959-5.048 2.19 7.96 2.277 5.796.038 18.444.738 28.106 1.554 40.462 3.418 45.885 8.95 28.203 28.769-9.23 10.345-1.79 16.926 26.429 23.376 33.583 7.677 47.841 13.07 57.961 21.923 5.304 4.639 12.699 15.192 13.804 19.698.825 3.362 2.394 3.46 10.74.674 25.567-8.535 34.384-23.521 21.868-37.166-16.939-18.468-9.414-29.809 30.1-45.368 9.957-3.921 16.75-7.134 16.75-7.925 0-.731-3.825-4.09-8.5-7.465-9.013-6.507-10.372-8.996-6.716-12.305 2.221-2.009 11.593-6.192 16.057-7.165 2.858-.623 3.239-1.039 2.637-2.879-.387-1.183-1.556-6.876-2.6-12.651-2.846-15.761-4.142-19.299-12.456-34-9.358-16.55-23.88-31.813-43.049-45.248-14.499-10.162-19.413-10.537-28.366-2.161-6.254 5.849-7.771 4.615-6.103-4.963 1.71-9.816.07-11.496-10.057-10.296-5.557.658-9.49 2.795-17.109 9.299-5.823 4.97-11.139 6.815-16.856 5.849-5.07-.856-6.882-3.543-6.882-10.203 0-7.048-1.408-6.887-11.277 1.284m-154.473 3.101c-3.266 1.318.229 5.595 7.59 9.291 2.386 1.199 6.49 3.724 9.119 5.613 5.774 4.148 6.471 4.208 7.96.684.639-1.512 3.014-4.775 5.279-7.25 4.298-4.698 3.181-6.879-2.081-4.063-2.871 1.537-6.816 1.307-9.672-.565-3.739-2.45-15.417-4.831-18.195-3.71M302 166.301c-.275.284-7.024.831-14.998 1.215-19.308.929-30.354 5.461-36.621 15.026-2.567 3.918-.85 4.061 2.53.212 5.52-6.287 13.395-8.927 26.394-8.848 7.294.045 13.286-.489 17.195-1.531 11.44-3.049 15.306-2.916 23.048.794 6.779 3.248 7.275 3.331 19.952 3.327 8.097-.002 14.32-.488 16.5-1.288 7.284-2.674 18.666-2.613 29.5.16 18.213 4.661 39.709 12.505 43.048 15.708 3.38 3.243 4.452 3.611 4.452 1.527 0-1.874-11.216-12.003-15.591-14.079-7.812-3.707-47.846-9.58-57.909-8.494-13.969 1.506-26.672 1.139-35.687-1.031-8.623-2.076-20.941-3.599-21.813-2.698m-169.5 41.235c-1.65.756-4.079 1.394-5.398 1.419-6.208.117-35.399 11.746-41.865 16.678-7.838 5.978-8.738 10.425-3.337 16.488 3.862 4.335 6.267 4.928 4.181 1.03-5.556-10.381 7.175-21.198 36.567-31.071 6.681-2.244 12.896-4.08 13.809-4.08.914 0 1.383-.45 1.043-1-.764-1.236-1.242-1.185-5 .536m243.844 2.095c-4.655 3.018-9.101 11.496-6.96 13.273.686.569 1.018 2.679.793 5.038L369.79 232h-4.895c-2.692 0-4.895.388-4.895.863 0 1.053 10.271 3.131 37.959 7.677 24.259 3.983 23.041 3.872 23.041 2.102 0-.916-1.872-1.553-5.765-1.96-13.986-1.461-16.235-2.399-16.235-6.765 0-3.81.096-3.917 3.5-3.917 3.391 0 3.5.119 3.5 3.833 0 4.608.328 5.018 3.524 4.407 2.301-.44 2.476-.89 2.476-6.357 0-4.751.311-5.883 1.617-5.883 1.199 0 1.451-.58.976-2.25a99.663 99.663 0 0 1-1.24-4.992c-.714-3.264-10.004-12.076-11.688-11.085-5.553 3.269-9.8 7.976-10.808 11.981-1.075 4.27-2.407 6.13-3.562 4.975-1.509-1.509 2.193-9.837 5.835-13.128 5.078-4.587 5.163-4.501-4.43-4.501-7.268 0-8.804.327-12.356 2.631M138 211c0 .55.423 1 .941 1s1.219-.45 1.559-1c.34-.55-.084-1-.941-1s-1.559.45-1.559 1m-4.198.531c-.292.293-1.38.697-2.417.899-5.309 1.033-20.68 8.131-24.277 11.21-4.631 3.964-5.293 7.36-2.164 11.11 2.552 3.06 3.025 2.837 2.383-1.125-.995-6.127 5.086-11.193 22.824-19.015 2.008-.885 4.371-1.61 5.25-1.61.88 0 1.599-.45 1.599-1 0-1.048-2.284-1.383-3.198-.469M400.2 216.2c-2.683 2.683-1.447 5.8 2.3 5.8 2.986 0 3.5-.338 3.5-2.3 0-2.445-1.679-4.7-3.5-4.7-.605 0-1.64.54-2.3 1.2m-77.164 15.119c1.628 1.466 10.309 4.211 16.464 5.206 2.2.355 11.65 3.044 21 5.974s20.6 6.319 25 7.531c4.4 1.212 12.557 3.726 18.127 5.587 11.005 3.677 13.373 4.052 13.373 2.12 0-.727-3.29-2.159-7.75-3.375-4.262-1.162-11.35-3.473-15.75-5.135-4.4-1.663-13.85-4.421-21-6.129-7.15-1.708-16.6-4.507-21-6.22-12.622-4.915-31.938-8.687-28.464-5.559M301 232.891c0 .9 7.122 4.109 9.119 4.109 1.053 0 2.393.54 12.12 4.884 2.607 1.164 4.929 2.116 5.161 2.116.232 0 3.914 1.635 8.182 3.634 4.268 1.999 14.771 6.214 23.339 9.367 8.569 3.152 18.954 7.1 23.079 8.773 25.04 10.153 30.695 11.858 29.762 8.976-.373-1.151-10.184-5.385-31.762-13.704-4.675-1.802-11.104-4.59-14.286-6.194-3.183-1.605-8.072-3.351-10.866-3.881-2.793-.529-8.514-2.5-12.713-4.379-4.199-1.878-10.844-4.358-14.767-5.511-3.923-1.152-10.201-3.667-13.952-5.588-6.458-3.307-12.416-4.556-12.416-2.602m-16.759 4.359c.223.688 1.723 1.871 3.333 2.629 1.609.758 6.526 3.765 10.926 6.681s12.95 7.39 19 9.943c16.719 7.054 22.888 10.143 41 20.527 31.059 17.807 48.5 25.349 48.5 20.974 0-.548-10.776-6.388-23.948-12.978-13.171-6.59-27.234-14.169-31.25-16.842-10.363-6.897-11.62-7.509-28.125-13.677-15.573-5.821-22.115-8.789-23.184-10.518-.754-1.22-13.931-7.989-15.551-7.989-.61 0-.925.563-.701 1.25M68.335 270.114c.358 4.062.874 8.624 1.146 10.138.273 1.514.979 5.564 1.571 9 3.972 23.076 15.411 52.815 21.358 55.525 3.221 1.468 3.219.862-.016-4.777-8.661-15.099-16.432-41.348-21.143-71.42-1.332-8.504-3.692-7.263-2.916 1.534M155 279.845c0 .465-1.8 3.63-4 7.034-4.672 7.229-4.583 6.892-1.928 7.301 1.917.296 1.767.745-2 5.993-4.664 6.498-4.767 6.827-2.131 6.827 3.483 0 3.218 1.873-.897 6.337-4.828 5.237-5.046 6.464-1.044 5.876 1.687-.247 3 .014 3 .597 0 1.233-4.459 6.796-7.931 9.894-2.868 2.559-2.697 2.669 6.7 4.302 3.448.599 6.697.824 7.22.501 2.165-1.338 2.54 12.344.486 17.698-.408 1.062.137 1.679 1.755 1.988 4.388.839 4.607.282 4.027-10.244-.445-8.079-.286-9.969.848-10.053.767-.058 4.395-.17 8.061-.25 8.681-.19 8.956-.682 3.457-6.181-5.214-5.213-5.854-7.465-2.123-7.465 3.396 0 3.144-1.436-1-5.703-4.271-4.398-4.738-7.767-.976-7.048 3.693.706 3.808-.559.351-3.846-2.636-2.506-5.875-7.335-5.875-8.76 0-.251.9-.22 2 .067 2.291.599 2.659-.919.63-2.602-.753-.625-2.579-3.83-4.056-7.123-2.344-5.222-4.574-7.728-4.574-5.14m76.101 14.954c-2.226 4.427-4.509 8.335-5.074 8.684-2.045 1.264-1.019 2.732 1.473 2.106 1.375-.345 2.5-.35 2.5-.012 0 1.32-4.53 7.065-7.691 9.753-3.13 2.663-3.611 4.902-.984 4.578 6.002-.741 6.055 1.702.175 7.989-5.385 5.757-5.451 6.103-1.167 6.103 5.636 0 5.24 1.968-2.071 10.29-4.404 5.013-3.835 5.487 6.341 5.278l8.642-.178-.683 9.305-.683 9.305h8.348l-.591-4.25c-2.071-14.874-2.071-15.137-.037-14.27 1.046.445 2.576.756 3.401.691.825-.065 4.116-.294 7.314-.509 7.531-.506 8.812-1.77 4.8-4.736-7.42-5.486-9.639-12.89-3.425-11.432 5.269 1.236 3.825-1.429-5.085-9.384-2.946-2.63-2.944-4.732.004-4.391 4.118.475 4.834-.641 2.244-3.499-3.034-3.348-7.852-9.884-7.852-10.653 0-.312.9-.567 2-.567s2-.243 2-.541c0-.766-8.061-15.777-9.041-16.835-.445-.481-2.632 2.747-4.858 7.175m-34.412 10.351c-1.381 2.393-3.481 6.444-4.665 9.004-1.185 2.559-3.025 5.442-4.089 6.405-2.684 2.429-2.42 3.441.898 3.441 1.559 0 3.086.253 3.395.562.916.915-4.134 9.181-7.169 11.735-6.013 5.06-5.977 7.703.108 7.703 2.108 0 3.833.334 3.833.741 0 1.621-7.149 10.993-9.984 13.089-4.007 2.963-3.807 3.801 1.067 4.454 2.245.301 4.369.835 4.72 1.185 1.144 1.144-4.069 9.603-7.982 12.952-3.873 3.315-4.845 5.474-2.571 5.708.688.071 4.85.223 9.25.338 4.4.116 9.08.283 10.4.372l2.401.161-.717 9.75-.9 12.25c-.171 2.319.138 2.5 4.255 2.5h4.44l-.239-11c-.132-6.05-.481-11.815-.777-12.812-.471-1.589-.1-1.729 3.026-1.143 5.031.944 20.611-1.381 20.611-3.076 0-.728-1.322-2.369-2.937-3.647C219.74 373.195 213 364.66 213 363.079c0-1.435 4.469-2.429 7.5-1.668 3.967.995 3.218-2.786-1.212-6.118-10.07-7.576-12.697-12.293-6.847-12.293 4.362 0 5.222-1.393 2.895-4.691-9.509-13.478-10.514-15.643-6.836-14.72 3.35.841 3.258.442-2.578-11.089-6.403-12.653-6.243-12.526-9.233-7.35M85.471 350.672c-1.407 1.407-1.561 2.873-.968 9.25.388 4.168.762 10.843.832 14.834.142 8.088 1.972 9.532 2.468 1.948.205-3.123 1.43-6.51 3.75-10.363 3.656-6.071 4.714-13.674 2.247-16.141-1.736-1.736-6.384-1.473-8.329.472m14.779-.989c-2.115.819-1.518 7.765.853 9.912 2.413 2.185 32.482 3.691 30.381 1.521-.559-.577-2.584-1.143-4.5-1.258-2.212-.132-5.674-1.725-9.484-4.363-7.743-5.361-13.449-7.283-17.25-5.812m-5.845 16.426c-2.348 2.598-2.377 9.651-.076 18.391.869 3.3 1.858 8.587 2.197 11.75.828 7.71 2.474 7.326 2.474-.578 0-4.442.745-8.161 2.5-12.48 3.191-7.853 3.464-16.606.566-18.157-2.988-1.599-5.574-1.237-7.661 1.074m14.845-.575c-1.586 1.114-2.25 2.587-2.25 4.997 0 5.146 4.117 6.972 13.449 5.965 9.677-1.043 12.359-1.059 17.428-.103 6.26 1.181 4.463-.877-2.124-2.432-2.889-.682-6.378-2.018-7.753-2.97-8.142-5.635-15.461-7.765-18.75-5.457m-4.902 17.057c-1.997 3.049-1.083 8.758 2.77 17.297 2.065 4.577 2.882 7.966 2.882 11.95 0 7.477 1.644 5.465 2.319-2.838.291-3.575 1.146-9.2 1.9-12.5 1.364-5.969.963-12.718-.866-14.547-2.16-2.16-7.415-1.788-9.005.638m13.044-.017c-.962 3.831 1.027 7.217 4.819 8.206 4.371 1.14 9.769-.022 29.706-6.393.962-.307 1.09-.78.399-1.471-.692-.692-2.362-.481-5.2.654-4.073 1.63-4.388 1.605-12.114-.948-10.706-3.539-16.73-3.555-17.61-.048m314.243 7.062c-1.576 1.357-2.662 2.671-2.412 2.92.25.25 1.745-.655 3.322-2.011 1.578-1.355 2.663-2.669 2.412-2.92-.251-.25-1.746.655-3.322 2.011m-299.385 3.101c-3.039.364-3.25.641-3.25 4.255 0 7.589 4.606 9.213 17.43 6.145 4.988-1.193 10.496-2.162 12.238-2.153 1.743.009 3.88-.257 4.75-.591 3.324-1.276 1.333-1.881-5.167-1.571-5.837.279-7.569-.078-12.753-2.627-7.115-3.498-8.941-3.975-13.248-3.458m-13.499 1.021c-3.643.809-3.56 11.079.157 19.242 1.353 2.973 2.056 6.621 2.07 10.75.012 3.485.464 6.25 1.022 6.25.559 0 1.005-2.757 1.011-6.25.006-3.437.681-8.459 1.5-11.159 3.645-12.016 1.094-20.356-5.76-18.833m302.749 3.358c-15.267 9.909-35.364 17.616-66.5 25.5-48.089 12.178-66.699 23.374-58.443 35.161 2.243 3.204 3.4 2.736 2.774-1.122-1.836-11.319 14.632-20.477 56.787-31.58 35.069-9.236 47.815-14.649 71.279-30.271.575-.382.833-.895.574-1.139s-3.171 1.309-6.471 3.451m-35.5 3.989c-5.225 1.578-18.05 4.485-28.5 6.459-10.45 1.973-20.8 4.012-23 4.529-41.911 9.856-52.427 13.707-60.694 22.226-7.367 7.592-8.196 17.351-2.27 26.738 3.873 6.135 5.723 6.277 3.357.258-1.47-3.741-1.158-14.744.533-18.791 5.057-12.103 22.404-18.834 82.612-32.05 16.857-3.701 22.971-5.411 32.962-9.223 11.289-4.306 8.992-4.373-5-.146M143.2 407.2c-1.883 1.883-1.441 7.272.76 9.264 1.658 1.5 3.008 1.665 8.75 1.069 8.914-.925 16.004-1.106 20.142-.513 6.523.934 3.546-1.537-3.18-2.64-3.785-.62-8.07-2.038-9.615-3.18-6.219-4.598-14.334-6.523-16.857-4m-14.629 2.371c-2.718 2.719-.959 9.807 4.281 17.252 1.036 1.472 2.201 5.264 2.588 8.427 1.01 8.247 2.716 7.213 2.473-1.5-.111-3.988-.108-10.324.005-14.08.305-10.078-4.344-15.101-9.347-10.099m26.432 12.92c-2.193 5.77 2.951 8.485 16.997 8.97 5.225.18 11.637.651 14.25 1.047 2.975.45 4.75.346 4.75-.279 0-.549-2.433-1.303-5.407-1.674-5.355-.669-6.915-1.325-17.593-7.393-6.927-3.937-11.662-4.181-12.997-.671m-13.758-.336c-2.906 2.906-1.433 6.843 5.125 13.692 3.971 4.148 6.841 8.159 7.621 10.653.688 2.2 1.646 4.428 2.13 4.95 1.245 1.346 1.112-2.714-.202-6.135-.595-1.548-1.717-6.415-2.495-10.815-.778-4.4-2.248-9.125-3.268-10.5-2.07-2.791-6.953-3.803-8.911-1.845m18.291 13.805c-3.77 4.166-.896 7.496 12.546 14.54 3.149 1.65 9.603 5.622 14.342 8.826 4.74 3.205 9.147 5.65 9.794 5.435.648-.216-1.049-1.895-3.77-3.731-11.929-8.048-14.656-10.565-17.49-16.147-4.841-9.533-11.423-13.342-15.422-8.923" fill-rule="evenodd"/></svg>